<svg preserveAspectRatio="none" overflow="visible" style="display: block;" width="506.944" height="237.593" viewBox="0 0 506.944 237.593" fill="none" xmlns="http://www.w3.org/2000/svg">
<g id="Vector" filter="url(#filter0_d_0_87)">
<path d="M28.4857 123.238C-6.02989 110.838 3.40852 126.55 28.4859 148.038C93.3898 203.651 165.037 213.447 192.199 217.904C240.456 225.821 274.233 223.164 299.872 223.164C337.876 223.164 380.712 219.057 408.296 212.267C432.341 206.348 454.442 199.115 476.952 175.818C499.462 152.521 499.317 97.8514 469.413 57.3979C439.508 16.9444 341.265 3.58161 253.976 6.3496C188.678 8.4202 129.402 23.8266 102.014 48.6269C74.6272 73.4272 84.8708 84.3807 70.1294 117.601C61.1254 137.892 36.8574 126.245 28.4857 123.238Z" fill="#FFF7EF"/>
</g>
<defs>
<filter id="filter0_d_0_87" x="-1.25691e-07" y="4.27182e-08" width="506.944" height="237.593" filterUnits="userSpaceOnUse" color-interpolation-filters="sRGB">
<feFlood flood-opacity="0" result="BackgroundImageFix"/>
<feColorMatrix in="SourceAlpha" type="matrix" values="0 0 0 0 0 0 0 0 0 0 0 0 0 0 0 0 0 0 127 0" result="hardAlpha"/>
<feOffset dx="4" dy="4"/>
<feGaussianBlur stdDeviation="5"/>
<feComposite in2="hardAlpha" operator="out"/>
<feColorMatrix type="matrix" values="0 0 0 0 0 0 0 0 0 0 0 0 0 0 0 0 0 0 0.2 0"/>
<feBlend mode="normal" in2="BackgroundImageFix" result="effect1_dropShadow_0_87"/>
<feBlend mode="normal" in="SourceGraphic" in2="effect1_dropShadow_0_87" result="shape"/>
</filter>
</defs>
</svg>
